<svg xmlns="http://www.w3.org/2000/svg" viewBox="0 0 1000 750" preserveAspectRatio="xMidYMid slice">
<defs>
  <linearGradient id="mp" x1="0" y1="0" x2="0" y2="1">
    <stop offset="0%" stop-color="#2BB8FF" stop-opacity="0.6"/>
    <stop offset="100%" stop-color="#06335C"/>
  </linearGradient>
</defs>
<rect width="1000" height="750" fill="url(#mp)"/>
<g stroke="rgba(247,248,250,0.18)" stroke-width="1.5">
  <line x1="0" y1="150" x2="1000" y2="150"/>
  <line x1="0" y1="300" x2="1000" y2="300"/>
  <line x1="0" y1="450" x2="1000" y2="450"/>
  <line x1="0" y1="600" x2="1000" y2="600"/>
</g>
<g fill="rgba(247,248,250,0.15)">
  <ellipse cx="200" cy="220" rx="60" ry="4"/>
  <ellipse cx="500" cy="380" rx="80" ry="4"/>
  <ellipse cx="800" cy="540" rx="70" ry="4"/>
  <ellipse cx="150" cy="500" rx="50" ry="4"/>
</g>
<g fill="#F7F8FA" transform="translate(500,400)">
  <path d="M -90 -50 Q -100 -110 -10 -130 Q 70 -130 90 -80 Q 90 -40 70 -30 L -60 -30 Q -90 -40 -90 -50 Z" fill="#0A2240"/>
  <path d="M -95 -75 Q -10 -115 80 -90 L 80 -70 Q -10 -100 -95 -55 Z" fill="#C8A45C"/>
  <path d="M -60 -30 L 70 -30 Q 90 -10 70 30 L -60 30 Z"/>
  <ellipse cx="30" cy="-40" rx="22" ry="14" fill="#0A2240"/>
  <path d="M -60 0 Q -180 50 -220 150 L -200 180 Q -120 100 -30 80 Z"/>
</g>
<g fill="#F7F8FA" opacity="0.8">
  <circle cx="320" cy="510" r="6"/>
  <circle cx="340" cy="490" r="4"/>
  <circle cx="300" cy="490" r="3"/>
</g>
</svg>
