<svg xmlns="http://www.w3.org/2000/svg" viewBox="0 0 1400 875" preserveAspectRatio="xMidYMid slice">
<defs>
  <linearGradient id="nx" x1="0" y1="0" x2="0" y2="1">
    <stop offset="0%" stop-color="#0A2240"/>
    <stop offset="100%" stop-color="#020A18"/>
  </linearGradient>
</defs>
<rect width="1400" height="875" fill="url(#nx)"/>
<!-- grid backdrop -->
<g stroke="rgba(200,164,92,0.06)" stroke-width="1">
  <line x1="0" y1="100" x2="1400" y2="100"/>
  <line x1="0" y1="250" x2="1400" y2="250"/>
  <line x1="0" y1="400" x2="1400" y2="400"/>
  <line x1="0" y1="550" x2="1400" y2="550"/>
  <line x1="0" y1="700" x2="1400" y2="700"/>
  <line x1="100" y1="0" x2="100" y2="875"/>
  <line x1="300" y1="0" x2="300" y2="875"/>
  <line x1="500" y1="0" x2="500" y2="875"/>
  <line x1="700" y1="0" x2="700" y2="875"/>
  <line x1="900" y1="0" x2="900" y2="875"/>
  <line x1="1100" y1="0" x2="1100" y2="875"/>
  <line x1="1300" y1="0" x2="1300" y2="875"/>
</g>
<!-- line chart -->
<path d="M 100 600 L 250 500 L 400 540 L 550 420 L 700 360 L 850 280 L 1000 220 L 1150 160 L 1300 100"
      stroke="#C8A45C" stroke-width="4" fill="none" stroke-linecap="round" stroke-linejoin="round"/>
<!-- gradient under -->
<path d="M 100 600 L 250 500 L 400 540 L 550 420 L 700 360 L 850 280 L 1000 220 L 1150 160 L 1300 100 L 1300 800 L 100 800 Z"
      fill="#C8A45C" opacity="0.08"/>
<!-- data points -->
<g fill="#F7F8FA">
  <circle cx="100" cy="600" r="6"/>
  <circle cx="250" cy="500" r="6"/>
  <circle cx="400" cy="540" r="6"/>
  <circle cx="550" cy="420" r="6"/>
  <circle cx="700" cy="360" r="6"/>
  <circle cx="850" cy="280" r="6"/>
  <circle cx="1000" cy="220" r="6"/>
  <circle cx="1150" cy="160" r="6"/>
  <circle cx="1300" cy="100" r="6"/>
</g>
<!-- bars below -->
<g fill="#C8A45C" opacity="0.4">
  <rect x="80" y="720" width="40" height="80"/>
  <rect x="230" y="700" width="40" height="100"/>
  <rect x="380" y="730" width="40" height="70"/>
  <rect x="530" y="680" width="40" height="120"/>
  <rect x="680" y="660" width="40" height="140"/>
  <rect x="830" y="640" width="40" height="160"/>
  <rect x="980" y="620" width="40" height="180"/>
  <rect x="1130" y="600" width="40" height="200"/>
  <rect x="1280" y="580" width="40" height="220"/>
</g>
<!-- circular ai node top right -->
<g transform="translate(1200,180)">
  <circle r="60" fill="none" stroke="#C8A45C" stroke-opacity="0.4" stroke-dasharray="6 4"/>
  <circle r="36" fill="none" stroke="#C8A45C"/>
  <circle r="8" fill="#C8A45C"/>
</g>
<text x="700" y="850" font-family="Inter, sans-serif" font-size="16" letter-spacing="6" text-anchor="middle" fill="#C8A45C" font-weight="600">AI · PERFORMANCE · GRAPH</text>
</svg>
